<svg width="22" height="22" viewBox="0 0 22 22" fill="none" xmlns="http://www.w3.org/2000/svg">
<path d="M11.4231 5.70569C14.3762 5.70569 16.8137 8.14319 16.8137 11.0963C16.8137 14.0963 14.3762 16.4869 11.4231 16.4869C8.4231 16.4869 6.03247 14.0963 6.03247 11.0963C6.03247 8.14319 8.4231 5.70569 11.4231 5.70569ZM11.4231 14.6119C13.345 14.6119 14.8918 13.0651 14.8918 11.0963C14.8918 9.17444 13.345 7.62756 11.4231 7.62756C9.45435 7.62756 7.90747 9.17444 7.90747 11.0963C7.90747 13.0651 9.50122 14.6119 11.4231 14.6119ZM18.2668 5.51819C18.2668 6.22131 17.7043 6.78381 17.0012 6.78381C16.2981 6.78381 15.7356 6.22131 15.7356 5.51819C15.7356 4.81506 16.2981 4.25256 17.0012 4.25256C17.7043 4.25256 18.2668 4.81506 18.2668 5.51819ZM21.8293 6.78381C21.9231 8.51819 21.9231 13.7213 21.8293 15.4557C21.7356 17.1432 21.3606 18.5963 20.1418 19.8619C18.9231 21.0807 17.4231 21.4557 15.7356 21.5494C14.0012 21.6432 8.7981 21.6432 7.06372 21.5494C5.37622 21.4557 3.9231 21.0807 2.65747 19.8619C1.43872 18.5963 1.06372 17.1432 0.969971 15.4557C0.876221 13.7213 0.876221 8.51819 0.969971 6.78381C1.06372 5.09631 1.43872 3.59631 2.65747 2.37756C3.9231 1.15881 5.37622 0.783813 7.06372 0.690063C8.7981 0.596313 14.0012 0.596313 15.7356 0.690063C17.4231 0.783813 18.9231 1.15881 20.1418 2.37756C21.3606 3.59631 21.7356 5.09631 21.8293 6.78381ZM19.5793 17.2838C20.1418 15.9244 20.0012 12.6432 20.0012 11.0963C20.0012 9.59631 20.1418 6.31506 19.5793 4.90881C19.2043 4.01819 18.5012 3.26819 17.6106 2.94006C16.2043 2.37756 12.9231 2.51819 11.4231 2.51819C9.87622 2.51819 6.59497 2.37756 5.2356 2.94006C4.2981 3.31506 3.59497 4.01819 3.21997 4.90881C2.65747 6.31506 2.7981 9.59631 2.7981 11.0963C2.7981 12.6432 2.65747 15.9244 3.21997 17.2838C3.59497 18.2213 4.2981 18.9244 5.2356 19.2994C6.59497 19.8619 9.87622 19.7213 11.4231 19.7213C12.9231 19.7213 16.2043 19.8619 17.6106 19.2994C18.5012 18.9244 19.2512 18.2213 19.5793 17.2838Z" fill="white"/>
</svg>
