<svg width="60" height="60" viewBox="0 0 60 60" fill="none" xmlns="http://www.w3.org/2000/svg">
<g id="Vector">
<g id="Vector_2">
<path d="M22.5021 1.04C22.8682 1.48482 23.0925 2.02919 23.1459 2.60278C23.1994 3.17636 23.0797 3.75281 22.8021 4.25763C20.6339 8.23833 19.5016 12.7003 19.5093 17.2332C19.5093 32.3126 31.803 44.5231 46.9544 44.5231C48.9308 44.5231 50.8548 44.3168 52.7037 43.923C53.2705 43.8003 53.8608 43.8472 54.4011 44.058C54.9413 44.2688 55.4075 44.634 55.7415 45.1081C56.094 45.601 56.2737 46.1967 56.2526 46.8023C56.2316 47.4079 56.011 47.9897 55.6252 48.457C52.6837 52.07 48.973 54.9811 44.7636 56.978C40.5541 58.9749 35.9521 60.0074 31.2929 60C14.0038 60 0 46.0719 0 28.9112C0 15.9956 7.92824 4.91766 19.2168 0.222467C19.7791 -0.0151739 20.4034 -0.0639485 20.9958 0.0834695C21.5882 0.230887 22.1168 0.566538 22.5021 1.04ZM18.2192 4.91391C13.8786 7.24212 10.2498 10.7028 7.71871 14.9282C5.18758 19.1536 3.84861 23.9857 3.84411 28.9112C3.84411 43.9868 16.1415 56.1973 31.2929 56.1973C34.9212 56.2036 38.5147 55.4902 41.8654 54.0985C45.2161 52.7068 48.2575 50.6644 50.8135 48.0895C49.5496 48.247 48.2633 48.3257 46.9544 48.3257C29.6653 48.3257 15.6652 34.3976 15.6652 17.2369C15.6652 12.8605 16.5728 8.69407 18.2192 4.91391Z" fill="black"/>
<path d="M40.4813 11.8029C40.5351 11.6405 40.6387 11.4992 40.7774 11.3991C40.916 11.2989 41.0828 11.245 41.2539 11.245C41.4249 11.245 41.5917 11.2989 41.7304 11.3991C41.8691 11.4992 41.9727 11.6405 42.0264 11.8029L43.4778 16.1606C44.1266 18.1032 45.6493 19.6258 47.592 20.2746L51.9499 21.7259C52.1123 21.7796 52.2536 21.8832 52.3538 22.0219C52.4539 22.1606 52.5079 22.3273 52.5079 22.4984C52.5079 22.6695 52.4539 22.8362 52.3538 22.9749C52.2536 23.1136 52.1123 23.2171 51.9499 23.2709L47.592 24.7222C46.6338 25.0414 45.7632 25.5794 45.0491 26.2935C44.335 27.0075 43.797 27.8781 43.4778 28.8362L42.0264 33.1938C41.9727 33.3562 41.8691 33.4976 41.7304 33.5977C41.5917 33.6979 41.4249 33.7518 41.2539 33.7518C41.0828 33.7518 40.916 33.6979 40.7774 33.5977C40.6387 33.4976 40.5351 33.3562 40.4813 33.1938L39.0299 28.8362C38.7107 27.8781 38.1727 27.0075 37.4586 26.2935C36.7445 25.5794 35.8739 25.0414 34.9158 24.7222L30.5579 23.2709C30.3954 23.2171 30.2541 23.1136 30.1539 22.9749C30.0538 22.8362 29.9999 22.6695 29.9999 22.4984C29.9999 22.3273 30.0538 22.1606 30.1539 22.0219C30.2541 21.8832 30.3954 21.7796 30.5579 21.7259L34.9158 20.2746C35.8739 19.9554 36.7445 19.4174 37.4586 18.7033C38.1727 17.9893 38.7107 17.1187 39.0299 16.1606L40.4813 11.8029ZM51.9911 0.368723C52.0281 0.261942 52.0975 0.169349 52.1896 0.103818C52.2817 0.0382862 52.3919 0.00307253 52.5049 0.00307253C52.6179 0.00307253 52.7281 0.0382862 52.8202 0.103818C52.9123 0.169349 52.9817 0.261942 53.0187 0.368723L53.9863 3.27134C54.4176 4.5689 55.4339 5.58519 56.7316 6.01646L59.6343 6.984C59.7411 7.02102 59.8337 7.09039 59.8992 7.18247C59.9648 7.27455 60 7.38475 60 7.49777C60 7.61079 59.9648 7.72099 59.8992 7.81307C59.8337 7.90515 59.7411 7.97452 59.6343 8.01154L56.7316 8.97908C56.0921 9.1918 55.511 9.55067 55.0345 10.0272C54.5579 10.5037 54.199 11.0848 53.9863 11.7242L53.0187 14.6268C52.9817 14.7336 52.9123 14.8262 52.8202 14.8917C52.7281 14.9573 52.6179 14.9925 52.5049 14.9925C52.3919 14.9925 52.2817 14.9573 52.1896 14.8917C52.0975 14.8262 52.0281 14.7336 51.9911 14.6268L51.0235 11.7242C50.8108 11.0848 50.4519 10.5037 49.9754 10.0272C49.4988 9.55067 48.9177 9.1918 48.2783 8.97908L45.3755 8.01154C45.2687 7.97452 45.1761 7.90515 45.1106 7.81307C45.045 7.72099 45.0098 7.61079 45.0098 7.49777C45.0098 7.38475 45.045 7.27455 45.1106 7.18247C45.1761 7.09039 45.2687 7.02102 45.3755 6.984L48.2783 6.01646C49.5759 5.58519 50.5922 4.5689 51.0235 3.27134L51.9911 0.372473V0.368723Z" fill="black"/>
</g>
</g>
</svg>
